<?xml version="1.0" standalone="no"?>
<!DOCTYPE svg PUBLIC "-//W3C//DTD SVG 20010904//EN"
 "http://www.w3.org/TR/2001/REC-SVG-20010904/DTD/svg10.dtd">
<svg version="1.0" xmlns="http://www.w3.org/2000/svg"
 width="72.000000pt" height="72.000000pt" viewBox="0 0 72.000000 72.000000"
 preserveAspectRatio="xMidYMid meet">
<metadata>
Created by potrace 1.14, written by Peter Selinger 2001-2017
</metadata>
<g transform="translate(0.000000,72.000000) scale(0.100000,-0.100000)"
fill="#000000" stroke="none">
<path d="M267 642 c-19 -4 -25 -62 -7 -62 6 0 10 -32 10 -75 0 -55 -3 -75 -13
-75 -7 0 -29 -17 -50 -37 -131 -135 -40 -337 153 -337 92 1 156 38 197 117 21
40 21 123 0 164 -17 31 -81 93 -97 93 -6 0 -10 33 -10 75 0 41 4 75 9 75 12 0
20 35 11 51 -8 11 -157 20 -203 11z"/>
</g>
</svg>
